<svg xmlns="http://www.w3.org/2000/svg" width="1200" height="630" viewBox="0 0 1200 630" role="img" aria-label="U.S. Treasury Yield Dashboard preview">
  <rect width="1200" height="630" fill="#f5f6f3"/>
  <rect x="72" y="72" width="1056" height="486" rx="18" fill="#ffffff" stroke="#d9ded8"/>
  <text x="112" y="145" fill="#68726d" font-family="Inter, Segoe UI, Arial, sans-serif" font-size="28" font-weight="700">Institutional rates dashboard</text>
  <text x="112" y="212" fill="#1d211f" font-family="Inter, Segoe UI, Arial, sans-serif" font-size="58" font-weight="760">U.S. Treasury Yield Monitor</text>
  <text x="112" y="265" fill="#68726d" font-family="Inter, Segoe UI, Arial, sans-serif" font-size="30">Current CMT rates, long-run H.15 history, spreads, and macro event analysis.</text>
  <g transform="translate(112 330)">
    <rect width="210" height="112" rx="12" fill="#fbfcfa" stroke="#d9ded8"/>
    <text x="24" y="40" fill="#68726d" font-family="Inter, Segoe UI, Arial, sans-serif" font-size="24" font-weight="700">2Y CMT</text>
    <text x="24" y="88" fill="#1d211f" font-family="Inter, Segoe UI, Arial, sans-serif" font-size="46" font-weight="760">4.13%</text>
  </g>
  <g transform="translate(346 330)">
    <rect width="210" height="112" rx="12" fill="#fbfcfa" stroke="#d9ded8"/>
    <text x="24" y="40" fill="#68726d" font-family="Inter, Segoe UI, Arial, sans-serif" font-size="24" font-weight="700">5Y CMT</text>
    <text x="24" y="88" fill="#1d211f" font-family="Inter, Segoe UI, Arial, sans-serif" font-size="46" font-weight="760">4.21%</text>
  </g>
  <g transform="translate(580 330)">
    <rect width="210" height="112" rx="12" fill="#fbfcfa" stroke="#d9ded8"/>
    <text x="24" y="40" fill="#68726d" font-family="Inter, Segoe UI, Arial, sans-serif" font-size="24" font-weight="700">10Y CMT</text>
    <text x="24" y="88" fill="#1d211f" font-family="Inter, Segoe UI, Arial, sans-serif" font-size="46" font-weight="760">4.48%</text>
  </g>
  <g transform="translate(814 330)">
    <rect width="210" height="112" rx="12" fill="#fbfcfa" stroke="#d9ded8"/>
    <text x="24" y="40" fill="#68726d" font-family="Inter, Segoe UI, Arial, sans-serif" font-size="24" font-weight="700">30Y CMT</text>
    <text x="24" y="88" fill="#1d211f" font-family="Inter, Segoe UI, Arial, sans-serif" font-size="46" font-weight="760">4.99%</text>
  </g>
  <path d="M112 515c120-70 224-18 316-46 121-37 174-124 303-112 107 10 177 76 293-60" fill="none" stroke="#0f766e" stroke-width="8" stroke-linecap="round"/>
</svg>

